<?xml version="1.0" standalone="no"?>
<!DOCTYPE svg PUBLIC "-//W3C//DTD SVG 20010904//EN"
 "http://www.w3.org/TR/2001/REC-SVG-20010904/DTD/svg10.dtd">
<svg version="1.0" xmlns="http://www.w3.org/2000/svg"
 width="260.000000pt" height="260.000000pt" viewBox="0 0 260.000000 260.000000"
 preserveAspectRatio="xMidYMid meet">
<metadata>
Created by potrace 1.11, written by Peter Selinger 2001-2013
</metadata>
<g transform="translate(0.000000,260.000000) scale(0.100000,-0.100000)"
fill="#000000" stroke="none">
<path d="M0 1300 l0 -1300 1300 0 1300 0 0 1300 0 1300 -1300 0 -1300 0 0
-1300z m1267 0 c156 -344 283 -628 283 -632 0 -5 -51 -8 -114 -8 l-114 0 -62
145 -63 145 -309 -2 -310 -3 -60 -142 -61 -143 -120 0 c-91 0 -118 3 -114 13
6 13 536 1183 558 1230 l13 28 95 -3 95 -3 283 -625z m879 219 c51 -25 76 -46
100 -82 55 -80 57 -95 61 -449 l4 -328 -110 0 -111 0 0 55 0 55 -35 -39 c-55
-60 -114 -84 -210 -85 -66 0 -90 5 -140 28 -107 49 -163 122 -172 226 -4 39 0
73 11 107 38 114 144 159 404 170 l142 6 0 49 c0 61 -24 114 -59 132 -72 38
-206 24 -329 -34 -35 -16 -67 -28 -71 -25 -4 2 -20 36 -35 75 -33 85 -34 83
82 126 124 46 169 54 289 51 106 -3 117 -5 179 -38z"/>
<path d="M773 1403 l-110 -258 220 -3 c121 -1 222 0 224 2 5 5 -204 497 -216
509 -4 4 -57 -109 -118 -250z"/>
<path d="M1900 1050 c-106 -15 -143 -44 -143 -113 0 -76 57 -127 140 -127 107
1 193 92 193 205 l0 45 -67 -1 c-38 -1 -93 -5 -123 -9z"/>
</g>
</svg>
